<?xml version="1.0" encoding="UTF-8"?>
<svg width="30px" height="26px" viewBox="0 0 30 26" version="1.1" xmlns="http://www.w3.org/2000/svg" xmlns:xlink="http://www.w3.org/1999/xlink">
    <!-- Generator: Sketch 52.4 (67378) - http://www.bohemiancoding.com/sketch -->
    <title>08_zizhanghaoguanli@2x</title>
    <desc>Created with Sketch.</desc>
    <g id="页面-1" stroke="none" stroke-width="1" fill="none" fill-rule="evenodd">
        <g id="103小程序选择-copy-14" transform="translate(-43.000000, -332.000000)" fill="#507CF1" fill-rule="nonzero">
            <g id="08_zizhanghaoguanli" transform="translate(43.000000, 332.000000)">
                <path d="M26.2589015,22.503184 L22.1024575,22.503184 C21.1888335,18.9905071 18.1457191,16.2619794 14.3763873,15.6612021 C15.2724802,15.0175598 16.0268969,14.2025251 16.5860589,13.2668263 C16.8308132,13.2432783 17.0765835,13.2314411 17.3225028,13.2313565 L22.53547,13.2313565 C26.6314383,13.2313565 29.9826387,16.4408674 29.9826387,20.3633874 C29.9826387,21.5402471 27.4877463,22.503184 26.2589015,22.503184 Z M19.9289354,11.444417 C19.0634202,11.444417 18.2410872,11.2674363 17.4987995,10.9494131 C17.6095262,10.4296962 17.6652262,9.90007012 17.6650057,9.36903475 C17.6650057,6.8830399 16.4596376,4.66735135 14.578607,3.22704505 C15.5484938,1.33540283 17.5797282,0.0331608752 19.9289354,0.0331608752 C23.2194564,0.0331608752 25.8866704,2.58761905 25.8866704,5.7387722 C25.8866704,8.88992535 23.2194564,11.444417 19.9289354,11.444417 Z M10.0702152,14.9407979 C6.77996602,14.9407979 4.11244621,12.3861055 4.11244621,9.23525354 C4.11244621,6.08389961 6.77996602,3.52960875 10.0702152,3.52960875 C13.3604304,3.52960875 16.0278143,6.08389961 16.0278143,9.23525354 C16.0278143,12.3861055 13.3604304,14.9407979 10.0702152,14.9407979 Z M12.6766138,16.7278378 C16.7724462,16.7278378 20.1236127,19.9372484 20.1236127,23.8598687 C20.1236127,25.0367284 17.6288901,25.9996319 16.4001812,25.9996319 L3.74007928,25.9996319 C2.51137033,25.9996319 0.0164779162,25.0367284 0.0164779162,23.8598687 C0.0164779162,19.9372484 3.36767837,16.7278378 7.46364666,16.7278378 L12.6766138,16.7278378 Z" id="形状"></path>
            </g>
        </g>
    </g>
</svg>