<?xml version="1.0" encoding="UTF-8"?>
<svg width="30px" height="28px" viewBox="0 0 30 28" version="1.1" xmlns="http://www.w3.org/2000/svg" xmlns:xlink="http://www.w3.org/1999/xlink">
    <!-- Generator: Sketch 52.4 (67378) - http://www.bohemiancoding.com/sketch -->
    <title>liebiao copy@2x</title>
    <desc>Created with Sketch.</desc>
    <g id="页面-1" stroke="none" stroke-width="1" fill="none" fill-rule="evenodd">
        <g id="liebiao-copy" fill="#507CF1" fill-rule="nonzero">
            <path d="M4.11171333,0.0221835749 C4.75386338,0.0221835749 5.29854423,0.241494364 5.74575588,0.680115942 C6.19296753,1.11873752 6.41657335,1.66124316 6.41657335,2.30763285 L6.41657335,4.07366184 C6.41657335,4.72005153 6.19296753,5.2683285 5.74575588,5.71849275 C5.29854423,6.168657 4.75386338,6.39373913 4.11171333,6.39373913 L2.28846585,6.39373913 C1.66924972,6.39373913 1.13603583,6.168657 0.688824188,5.71849275 C0.241612542,5.2683285 0.0180067189,4.72005153 0.0180067189,4.07366184 L0.0180067189,2.30763285 C0.0180067189,1.66124316 0.241612542,1.11873752 0.688824188,0.680115942 C1.13603583,0.241494364 1.66924972,0.0221835749 2.28846585,0.0221835749 L4.11171333,0.0221835749 Z M27.7107279,0.0221835749 C28.329944,0.0221835749 28.8631579,0.241494364 29.3103695,0.680115942 C29.7575812,1.11873752 29.981187,1.66124316 29.981187,2.30763285 L29.981187,4.07366184 C29.981187,4.72005153 29.7575812,5.2683285 29.3103695,5.71849275 C28.8631579,6.168657 28.329944,6.39373913 27.7107279,6.39373913 L13.0215454,6.39373913 C12.3793953,6.39373913 11.8347144,6.168657 11.3875028,5.71849275 C10.9402912,5.2683285 10.7166853,4.72005153 10.7166853,4.07366184 L10.7166853,2.30763285 C10.7166853,1.66124316 10.9402912,1.11873752 11.3875028,0.680115942 C11.8347144,0.241494364 12.3793953,0.0221835749 13.0215454,0.0221835749 L27.7107279,0.0221835749 Z M4.11171333,10.7914976 C4.75386338,10.7914976 5.29854423,11.0165797 5.74575588,11.466744 C6.19296753,11.9169082 6.41657335,12.4651852 6.41657335,13.1115749 L6.41657335,14.8776039 C6.41657335,15.5009082 6.19296753,16.0376425 5.74575588,16.4878068 C5.29854423,16.937971 4.75386338,17.1630531 4.11171333,17.1630531 L2.28846585,17.1630531 C1.66924972,17.1630531 1.13603583,16.937971 0.688824188,16.4878068 C0.241612542,16.0376425 0.0180067189,15.5009082 0.0180067189,14.8776039 L0.0180067189,13.1115749 C0.0180067189,12.4651852 0.241612542,11.9169082 0.688824188,11.466744 C1.13603583,11.0165797 1.66924972,10.7914976 2.28846585,10.7914976 L4.11171333,10.7914976 Z M27.7107279,10.7914976 C28.329944,10.7914976 28.8631579,11.0165797 29.3103695,11.466744 C29.7575812,11.9169082 29.981187,12.4651852 29.981187,13.1115749 L29.981187,14.8776039 C29.981187,15.5009082 29.7575812,16.0376425 29.3103695,16.4878068 C28.8631579,16.937971 28.329944,17.1630531 27.7107279,17.1630531 L13.0215454,17.1630531 C12.3793953,17.1630531 11.8347144,16.937971 11.3875028,16.4878068 C10.9402912,16.0376425 10.7166853,15.5009082 10.7166853,14.8776039 L10.7166853,13.1115749 C10.7166853,12.4651852 10.9402912,11.9169082 11.3875028,11.466744 C11.8347144,11.0165797 12.3793953,10.7914976 13.0215454,10.7914976 L27.7107279,10.7914976 Z M4.11171333,21.5954396 C4.75386338,21.5954396 5.29854423,21.8205217 5.74575588,22.270686 C6.19296753,22.7208502 6.41657335,23.2575845 6.41657335,23.8808889 L6.41657335,25.6469179 C6.41657335,26.2933076 6.19296753,26.8415845 5.74575588,27.2917488 C5.29854423,27.741913 4.75386338,27.9669952 4.11171333,27.9669952 L2.28846585,27.9669952 C1.66924972,27.9669952 1.13603583,27.741913 0.688824188,27.2917488 C0.241612542,26.8415845 0.0180067189,26.2933076 0.0180067189,25.6469179 L0.0180067189,23.8808889 C0.0180067189,23.2575845 0.241612542,22.7208502 0.688824188,22.270686 C1.13603583,21.8205217 1.66924972,21.5954396 2.28846585,21.5954396 L4.11171333,21.5954396 Z M27.7107279,21.5954396 C28.329944,21.5954396 28.8631579,21.8205217 29.3103695,22.270686 C29.7575812,22.7208502 29.981187,23.2575845 29.981187,23.8808889 L29.981187,25.6469179 C29.981187,26.2933076 29.7575812,26.8415845 29.3103695,27.2917488 C28.8631579,27.741913 28.329944,27.9669952 27.7107279,27.9669952 L13.0215454,27.9669952 C12.3793953,27.9669952 11.8347144,27.741913 11.3875028,27.2917488 C10.9402912,26.8415845 10.7166853,26.2933076 10.7166853,25.6469179 L10.7166853,23.8808889 C10.7166853,23.2575845 10.9402912,22.7208502 11.3875028,22.270686 C11.8347144,21.8205217 12.3793953,21.5954396 13.0215454,21.5954396 L27.7107279,21.5954396 Z" id="形状"></path>
        </g>
    </g>
</svg>