<?xml version="1.0" encoding="UTF-8"?>
<svg width="192px" height="192px" viewBox="0 0 192 192" version="1.1" xmlns="http://www.w3.org/2000/svg" xmlns:xlink="http://www.w3.org/1999/xlink">
    <!-- Generator: Sketch 52.4 (67378) - http://www.bohemiancoding.com/sketch -->
    <title>分组 5@2x</title>
    <desc>Created with Sketch.</desc>
    <g id="页面-1" stroke="none" stroke-width="1" fill="none" fill-rule="evenodd">
        <g id="200知识库数据分析-copy" transform="translate(-407.000000, -674.000000)">
            <g id="分组-5" transform="translate(503.341036, 769.867890) rotate(-3.000000) translate(-503.341036, -769.867890) translate(407.841036, 673.867890)">
                <circle id="椭圆形" fill="#D8D8D8" cx="95.2802301" cy="96.2802301" r="95.2802301"></circle>
                <path d="M159.933243,26.2916697 C154.438352,21.2131882 148.344151,16.7737055 141.768665,13.0912473 L95.7797071,94.9016736 L159.933243,26.2916697 Z" id="路径" fill="#B9B9B9"></path>
                <path d="M142.031541,13.2390128 C128.219785,5.44641985 112.269266,1 95.2802301,1 L95.2802301,96.2802301 L142.031541,13.2390128 Z" id="路径" fill="#AFAFAF"></path>
                <path d="M124.243105,5.4818021 C115.109767,2.57095304 105.378457,1 95.2802301,1 L95.2802301,96.2802301 L124.243105,5.4818021 Z" id="路径" fill="#BDBDBD"></path>
                <path d="M112.451946,2.54326627 C106.881853,1.52949315 101.08778,0.987513676 95.2251337,0.987513676 L95.2802301,96.2802301 L112.451946,2.54326627 Z" id="路径" fill="#CBCBCB"></path>
                <circle id="椭圆形" fill="#FFFFFF" cx="95.6598326" cy="96.6598326" r="48.5891213"></circle>
            </g>
        </g>
    </g>
</svg>