<?xml version="1.0" encoding="UTF-8"?>
<svg width="97px" height="107px" viewBox="0 0 97 107" version="1.1" xmlns="http://www.w3.org/2000/svg" xmlns:xlink="http://www.w3.org/1999/xlink">
    <!-- Generator: Sketch 52.4 (67378) - http://www.bohemiancoding.com/sketch -->
    <title>分组 2@2x</title>
    <desc>Created with Sketch.</desc>
    <g id="页面-1" stroke="none" stroke-width="1" fill="none" fill-rule="evenodd">
        <g id="200知识库数据分析-copy" transform="translate(-364.000000, -362.000000)">
            <g id="分组-2" transform="translate(363.000000, 358.000000)">
                <path d="M2.81839854,18.6198457 L2.82849003,77.0484106 C34.2900574,77.0538578 59.7901789,50.8989142 59.7846055,18.6297088 C59.783641,13.0453084 59.0188797,7.64375699 57.5916517,2.52898498 L2.81839854,18.6198457 Z" id="路径" fill="#CECECE" transform="translate(31.301502, 39.788698) rotate(-176.000000) translate(-31.301502, -39.788698) "></path>
                <path d="M48.6126209,16.3159264 L48.6646336,64.621818 C61.8605914,64.6360089 73.8120632,59.3325407 82.5058015,50.729441 L48.6126209,16.3159264 Z" id="路径" fill="#DDDDDD" transform="translate(65.559211, 40.468886) rotate(-120.000000) translate(-65.559211, -40.468886) "></path>
                <path d="M61.8451119,48.3833486 L61.8025174,91.9189561 C82.6599193,91.8985183 100.101346,77.1744928 104.339177,57.5476936 L61.8451119,48.3833486 Z" id="路径" fill="#E7E7E7" transform="translate(83.070847, 70.151152) rotate(-26.000000) translate(-83.070847, -70.151152) "></path>
                <path d="M23.595505,100.730628 L72.3684399,116.524299 C73.9543263,111.524954 74.8137625,106.196862 74.8205265,100.667933 C74.8438944,81.5671406 64.6847647,64.8882446 49.534589,55.8924673 L23.595505,100.730628 Z" id="路径" fill="#C8C8C8" transform="translate(49.208036, 86.208383) rotate(140.000000) translate(-49.208036, -86.208383) "></path>
                <ellipse id="椭圆形" fill="#FFFFFF" cx="56.9655172" cy="60.0110156" rx="15.4482759" ry="15.4867137"></ellipse>
            </g>
        </g>
    </g>
</svg>